<?xml version="1.0" standalone="no"?><!DOCTYPE svg PUBLIC "-//W3C//DTD SVG 1.1//EN" "http://www.w3.org/Graphics/SVG/1.1/DTD/svg11.dtd"><svg t="1753522527749" class="icon" viewBox="0 0 1024 1024" version="1.1" xmlns="http://www.w3.org/2000/svg" p-id="8519" xmlns:xlink="http://www.w3.org/1999/xlink" width="200" height="200"><path d="M475.428571 141.385143l254.537143 146.944a109.714286 109.714286 0 0 1 54.857143 95.012571v293.888a109.714286 109.714286 0 0 1-54.857143 95.012572L475.428571 919.186286a109.714286 109.714286 0 0 1-109.714285 0l-254.537143-146.944a109.714286 109.714286 0 0 1-54.857143-95.012572v-293.888a109.714286 109.714286 0 0 1 54.857143-95.012571L365.714286 141.385143a109.714286 109.714286 0 0 1 109.714285 0z" fill="#008BFF" p-id="8520"></path><path d="M768 232.813714l175.323429 101.229715a109.714286 109.714286 0 0 1 54.857142 95.012571v202.459429a109.714286 109.714286 0 0 1-54.857142 95.012571L768 827.757714a109.714286 109.714286 0 0 1-109.714286 0l-175.323428-101.229714a109.714286 109.714286 0 0 1-54.857143-95.012571v-202.459429a109.714286 109.714286 0 0 1 54.857143-95.012571L658.285714 232.813714a109.714286 109.714286 0 0 1 109.714286 0z" fill="#B3DDFF" p-id="8521"></path><path d="M646.034286 239.908571l83.894857 48.420572a109.714286 109.714286 0 0 1 54.857143 95.012571v293.888a109.714286 109.714286 0 0 1-54.857143 95.012572l-83.894857 48.420571-163.108572-94.134857a109.714286 109.714286 0 0 1-54.857143-95.012571v-202.459429a109.714286 109.714286 0 0 1 54.857143-95.012571l163.108572-94.171429z" fill="#0060B1" p-id="8522"></path></svg>